# xmcd
# 
# Track frame offsets:
#     150
#     18466
#     26901
#     45218
# 
# Disc length: 844
# 
# Revision: 0
# Processed by: cddbd v1.5.2PL0 Copyright (c) Steve Scherf et al.
# Submitted via: BonkEnc v1.0.15
# 
DISCID=26034a04
DTITLE=MoeDraGirL - 燃えよドラゴンズ! 2006
DYEAR=2006
DGENRE=応援歌
TTITLE0=燃えよドラゴンズ! 2006
TTITLE1=燃えよドラゴンズ! 球場合唱編
TTITLE2=燃えよドラゴンズ! インストルメンタル
TTITLE3=燃えよドラゴンズ! オリジナル・カラオケ
EXTD=
EXTT0=
EXTT1=
EXTT2=
EXTT3=
PLAYORDER=
